<svg width="26" height="26" viewBox="0 0 26 26" fill="none" xmlns="http://www.w3.org/2000/svg">
<path d="M1 25C1 21.2105 3.33684 18.2295 7.41684 17.4211C10.4737 16.8147 13.6316 14.8947 14.8947 13.6316M12.3684 23.7368C10.1504 23.7436 8.01085 22.9164 6.37413 21.4195C4.73741 19.9225 3.72307 17.8651 3.5323 15.6553C3.34152 13.4455 3.98824 11.2447 5.34419 9.48936C6.70014 7.73405 8.66627 6.55246 10.8526 6.17895C18.0526 4.78947 19.9474 4.13263 22.4737 1C23.7368 3.52632 25 6.28 25 11.1053C25 18.0526 18.9621 23.7368 12.3684 23.7368Z" stroke="#115132" stroke-width="2" stroke-linecap="round" stroke-linejoin="round"/>
</svg>
