<svg id="Group_376" data-name="Group 376" xmlns="http://www.w3.org/2000/svg" xmlns:xlink="http://www.w3.org/1999/xlink" width="85.575" height="85.575" viewBox="0 0 85.575 85.575">
  <defs>
    <clipPath id="clip-path">
      <rect id="Rectangle_4" data-name="Rectangle 4" width="85.575" height="85.575" fill="#ffc300"/>
    </clipPath>
    <clipPath id="clip-path-2">
      <rect id="Rectangle_5" data-name="Rectangle 5" width="20.498" height="30.847" fill="#29634b"/>
    </clipPath>
    <clipPath id="clip-path-3">
      <rect id="Rectangle_6" data-name="Rectangle 6" width="20.706" height="30.812" fill="#29634b"/>
    </clipPath>
    <clipPath id="clip-path-4">
      <rect id="Rectangle_7" data-name="Rectangle 7" width="19.597" height="29.446" fill="#29634b"/>
    </clipPath>
    <clipPath id="clip-path-5">
      <rect id="Rectangle_8" data-name="Rectangle 8" width="19.519" height="29.331" fill="#29634b"/>
    </clipPath>
    <clipPath id="clip-path-6">
      <rect id="Rectangle_9" data-name="Rectangle 9" width="10.258" height="22.08" fill="#29634b"/>
    </clipPath>
    <clipPath id="clip-path-7">
      <rect id="Rectangle_10" data-name="Rectangle 10" width="10.489" height="22.452" fill="#29634b"/>
    </clipPath>
  </defs>
  <g id="Group_4" data-name="Group 4" transform="translate(0 0)" style="mix-blend-mode: normal;isolation: isolate">
    <g id="Group_3" data-name="Group 3">
      <g id="Group_2" data-name="Group 2" clip-path="url(#clip-path)">
        <path id="Path_4" data-name="Path 4" d="M85.575,42.789A42.788,42.788,0,1,1,42.788,0,42.788,42.788,0,0,1,85.575,42.789" transform="translate(0 -0.001)" fill="#ffc300"/>
      </g>
    </g>
  </g>
  <g id="Group_23" data-name="Group 23" transform="translate(20.703 13.18)">
    <g id="Group_7" data-name="Group 7" transform="translate(23.672 28.368)" style="mix-blend-mode: normal;isolation: isolate">
      <g id="Group_6" data-name="Group 6">
        <g id="Group_5" data-name="Group 5" clip-path="url(#clip-path-2)">
          <path id="Path_5" data-name="Path 5" d="M138.024,160.015c-.779-16.431,5.075-25.549,16.969-30.431,2.492-1.023,3.595-.159,3.447,2.6-.52,9.723-5.323,17.059-12.828,22.82-2.308,1.772-4.86,3.226-7.588,5.014" transform="translate(-137.955 -129.168)" fill="#29634b"/>
        </g>
      </g>
    </g>
    <g id="Group_10" data-name="Group 10" transform="translate(0 28.374)" style="mix-blend-mode: normal;isolation: isolate">
      <g id="Group_9" data-name="Group 9">
        <g id="Group_8" data-name="Group 8" clip-path="url(#clip-path-3)">
          <path id="Path_6" data-name="Path 6" d="M85.067,160c-1.751-1.008-3.1-1.724-4.393-2.54-6.569-4.154-11.944-9.419-14.567-16.9a41.233,41.233,0,0,1-1.706-8.749c-.287-2.412,1.006-3.162,3.31-2.246C77.867,133.6,83.45,141.1,84.551,151.933c.256,2.525.33,5.068.516,8.065" transform="translate(-64.361 -129.186)" fill="#29634b"/>
        </g>
      </g>
    </g>
    <g id="Group_13" data-name="Group 13" transform="translate(23.478 12.304)" style="mix-blend-mode: normal;isolation: isolate">
      <g id="Group_12" data-name="Group 12">
        <g id="Group_11" data-name="Group 11" clip-path="url(#clip-path-4)">
          <path id="Path_7" data-name="Path 7" d="M137.528,108.674c-.046-.928-.091-1.437-.093-1.946-.007-2.836.168-5.685-.049-8.5a11.763,11.763,0,0,1,2.3-7.78,46.941,46.941,0,0,1,9.125-10.285c1.666-1.36,2.751-1.285,3.779.591,1.509,2.754,2.815,5.622,4.129,8.479.576,1.253.061,2.168-1.231,2.65-8.135,3.036-13.789,8.753-17.956,16.795" transform="translate(-137.352 -79.228)" fill="#29634b"/>
        </g>
      </g>
    </g>
    <g id="Group_16" data-name="Group 16" transform="translate(1.067 12.313)" style="mix-blend-mode: normal;isolation: isolate">
      <g id="Group_15" data-name="Group 15">
        <g id="Group_14" data-name="Group 14" clip-path="url(#clip-path-5)">
          <path id="Path_8" data-name="Path 8" d="M87.018,108.587A33.37,33.37,0,0,0,71.4,92.786c-.432-.21-.884-.378-1.333-.551-2.6-1-2.9-1.429-1.771-4.033a79.346,79.346,0,0,1,3.918-7.692c.855-1.5,2.016-1.62,3.353-.541a43.631,43.631,0,0,1,11.2,13.688,3.433,3.433,0,0,1,.406,1.519c.032,4.172.019,8.345.013,12.518a6.574,6.574,0,0,1-.171.893" transform="translate(-67.678 -79.256)" fill="#29634b"/>
        </g>
      </g>
    </g>
    <g id="Group_19" data-name="Group 19" transform="translate(23.679 0.028)" style="mix-blend-mode: normal;isolation: isolate">
      <g id="Group_18" data-name="Group 18">
        <g id="Group_17" data-name="Group 17" clip-path="url(#clip-path-6)">
          <path id="Path_9" data-name="Path 9" d="M137.979,63.144V41.064a43.719,43.719,0,0,1,9.973,7.721,2,2,0,0,1,.057,1.947,75.622,75.622,0,0,0-10.03,12.411" transform="translate(-137.979 -41.064)" fill="#29634b"/>
        </g>
      </g>
    </g>
    <g id="Group_22" data-name="Group 22" transform="translate(10.006)" style="mix-blend-mode: normal;isolation: isolate">
      <g id="Group_21" data-name="Group 21">
        <g id="Group_20" data-name="Group 20" clip-path="url(#clip-path-7)">
          <path id="Path_10" data-name="Path 10" d="M105.959,40.976V63.428a5.373,5.373,0,0,1-.578-.627A51.615,51.615,0,0,0,96.237,51.12c-.811-.767-1.111-1.616-.242-2.5a47.909,47.909,0,0,1,9.964-7.647" transform="translate(-95.47 -40.976)" fill="#29634b"/>
        </g>
      </g>
    </g>
  </g>
</svg>
