<svg width="28" height="28" viewBox="0 0 28 28" fill="none" xmlns="http://www.w3.org/2000/svg">
<path d="M10.1114 13.9949L12.7106 16.5951L17.909 11.3947M3.41847 9.60052C3.22878 8.74573 3.25791 7.85687 3.50315 7.01634C3.74839 6.17581 4.2018 5.41084 4.82135 4.79235C5.4409 4.17385 6.20652 3.72186 7.04722 3.47829C7.88793 3.23471 8.77651 3.20743 9.63056 3.39899C10.1006 2.66351 10.7482 2.05826 11.5136 1.63901C12.279 1.21975 13.1376 1 14.0102 1C14.8828 1 15.7414 1.21975 16.5068 1.63901C17.2722 2.05826 17.9198 2.66351 18.3899 3.39899C19.2452 3.2066 20.1353 3.23375 20.9774 3.47792C21.8194 3.72209 22.5861 4.17534 23.206 4.79551C23.8259 5.41568 24.279 6.18262 24.5231 7.025C24.7671 7.86738 24.7943 8.75783 24.602 9.61352C25.3371 10.0838 25.9422 10.7316 26.3612 11.4973C26.7803 12.263 27 13.1219 27 13.9949C27 14.8679 26.7803 15.7268 26.3612 16.4925C25.9422 17.2582 25.3371 17.906 24.602 18.3763C24.7934 19.2307 24.7662 20.1196 24.5227 20.9606C24.2792 21.8017 23.8274 22.5676 23.2091 23.1874C22.5909 23.8072 21.8262 24.2608 20.986 24.5061C20.1458 24.7514 19.2573 24.7806 18.4029 24.5908C17.9334 25.3291 17.2853 25.937 16.5186 26.3581C15.7519 26.7792 14.8914 27 14.0167 27C13.142 27 12.2815 26.7792 11.5148 26.3581C10.7481 25.937 10.1 25.3291 9.63056 24.5908C8.77651 24.7824 7.88793 24.7551 7.04722 24.5115C6.20652 24.2679 5.4409 23.816 4.82135 23.1975C4.2018 22.579 3.74839 21.814 3.50315 20.9735C3.25791 20.1329 3.22878 19.2441 3.41847 18.3893C2.67764 17.9203 2.06743 17.2714 1.64458 16.5031C1.22174 15.7348 1 14.872 1 13.9949C1 13.1178 1.22174 12.255 1.64458 11.4867C2.06743 10.7184 2.67764 10.0695 3.41847 9.60052Z" stroke="#115132" stroke-width="2" stroke-linecap="round" stroke-linejoin="round"/>
</svg>
