<svg width="97" height="97" viewBox="0 0 97 97" fill="none" xmlns="http://www.w3.org/2000/svg">
<path d="M40.8906 2.51242C45.2946 -0.8374 51.3924 -0.8374 55.7964 2.51242C58.3664 4.46722 61.6015 5.33406 64.8046 4.92615C70.2935 4.22713 75.5744 7.27605 77.7135 12.3791C78.9618 15.357 81.33 17.7253 84.3079 18.9735C89.411 21.1126 92.4599 26.3935 91.7609 31.8824C91.353 35.0855 92.2198 38.3206 94.1746 40.8906C97.5244 45.2946 97.5244 51.3924 94.1746 55.7964C92.2198 58.3664 91.353 61.6015 91.7609 64.8046C92.4599 70.2935 89.411 75.5744 84.3079 77.7135C81.33 78.9618 78.9618 81.33 77.7135 84.3079C75.5744 89.411 70.2935 92.4599 64.8046 91.7609C61.6015 91.353 58.3664 92.2198 55.7964 94.1746C51.3924 97.5244 45.2946 97.5244 40.8906 94.1746C38.3206 92.2198 35.0855 91.353 31.8824 91.7609C26.3935 92.4599 21.1126 89.411 18.9735 84.3079C17.7253 81.33 15.357 78.9618 12.3791 77.7135C7.27605 75.5744 4.22713 70.2935 4.92615 64.8046C5.33406 61.6015 4.46722 58.3664 2.51242 55.7964C-0.8374 51.3924 -0.8374 45.2946 2.51242 40.8906C4.46722 38.3206 5.33406 35.0855 4.92615 31.8824C4.22713 26.3935 7.27605 21.1126 12.3791 18.9735C15.357 17.7253 17.7253 15.357 18.9735 12.3791C21.1126 7.27605 26.3935 4.22713 31.8824 4.92615C35.0855 5.33406 38.3206 4.46722 40.8906 2.51242Z" fill="#006838"/>
</svg>
