<svg width="61" height="61" viewBox="0 0 61 61" fill="none" xmlns="http://www.w3.org/2000/svg">
<path d="M25.4077 1.5611C28.1442 -0.520345 31.9331 -0.520345 34.6696 1.5611C36.2665 2.77573 38.2766 3.31435 40.2669 3.06089C43.6775 2.62655 46.9588 4.52102 48.2879 7.69184C49.0636 9.54219 50.5351 11.0137 52.3855 11.7894C55.5563 13.1185 57.4508 16.3998 57.0164 19.8104C56.7629 21.8007 57.3016 23.8108 58.5162 25.4077C60.5976 28.1442 60.5976 31.9331 58.5162 34.6696C57.3016 36.2665 56.7629 38.2767 57.0164 40.2669C57.4508 43.6775 55.5563 46.9588 52.3855 48.288C50.5351 49.0636 49.0636 50.5351 48.2879 52.3855C46.9588 55.5563 43.6775 57.4508 40.2669 57.0164C38.2766 56.763 36.2665 57.3016 34.6696 58.5162C31.9331 60.5977 28.1442 60.5977 25.4077 58.5162C23.8108 57.3016 21.8006 56.763 19.8104 57.0164C16.3998 57.4508 13.1185 55.5563 11.7893 52.3855C11.0137 50.5351 9.54216 49.0636 7.69181 48.288C4.52099 46.9588 2.62652 43.6775 3.06086 40.2669C3.31432 38.2767 2.7757 36.2665 1.56107 34.6696C-0.520376 31.9331 -0.520376 28.1442 1.56107 25.4077C2.7757 23.8108 3.31432 21.8007 3.06086 19.8104C2.62652 16.3998 4.52099 13.1185 7.69181 11.7894C9.54216 11.0137 11.0137 9.54219 11.7893 7.69184C13.1185 4.52102 16.3998 2.62655 19.8104 3.06089C21.8006 3.31435 23.8108 2.77573 25.4077 1.5611Z" fill="#BAD346"/>
</svg>
